<?xml version="1.0" encoding="UTF-8" standalone="no"?>
<svg
   viewBox="0 0 1000 1000"
   version="1.1"
   id="svg9"
   sodipodi:docname="rock.svg"
   inkscape:version="1.4 (e7c3feb1, 2024-10-09)"
   xmlns:inkscape="http://www.inkscape.org/namespaces/inkscape"
   xmlns:sodipodi="http://sodipodi.sourceforge.net/DTD/sodipodi-0.dtd"
   xmlns="http://www.w3.org/2000/svg"
   xmlns:svg="http://www.w3.org/2000/svg">
  <defs
     id="defs9" />
  <sodipodi:namedview
     id="namedview9"
     pagecolor="#ffffff"
     bordercolor="#000000"
     borderopacity="0.25"
     inkscape:showpageshadow="2"
     inkscape:pageopacity="0.0"
     inkscape:pagecheckerboard="0"
     inkscape:deskcolor="#d1d1d1"
     inkscape:zoom="0.36769505"
     inkscape:cx="802.29528"
     inkscape:cy="261.08592"
     inkscape:window-width="1800"
     inkscape:window-height="1097"
     inkscape:window-x="0"
     inkscape:window-y="44"
     inkscape:window-maximized="1"
     inkscape:current-layer="svg9" />
  <g
     fill-rule="evenodd"
     id="g9"
     style="opacity:1">
    <path
       d="m 568,438 h 8 q 7,0 24,11 17,11 26,17 9,8 10,8 h 1 v 1 h 1 v 1 h 1 v 1 h 1 v 5 l -1,1 -1,1 h -3 l -1,-1 -2,-1 q 0,0 -4,-2 -4,-2 -14,-4 -9,0 -12,-2 -3,0 -20,-13 l -16,-12 -1,-1 -1,-1 v -3 h -1 v -1 h 1 v -2 q 1,-1 2,-2 1,-1 2,-1 z"
       fill="#f7f7f7"
       stroke="#f7f7f7"
       id="path1"
       style="display:inline;opacity:1" />
    <path
       d="m 430,154 v 1 h 1 v 1 h 1 v 1 h 1 v 1 h 1 v 1 l -1,1 -1,1 h -2 v 2 h -1 l -1,-1 h -1 v -1 h -1 v -1 h -1 q 0,0 -14,-12 -15,-11 -25,-18 -10,-6 -29,-13 -19,-7 -29,-9 -10,0 -20,2 l -10,2 v -1 l -1,-1 h -2 l -1,1 -1,1 h -2 v -2 h 3 l 2,-1 1,-1 1,1 q 2,0 8,-2 7,-1 6,-2 -1,-1 4,-2 5,-1 4,-1 -1,0 12,2 13,2 18,2 4,0 6,2 1,0 0,1 -1,1 0,1 2,1 2,0 0,-1 10,2 9,4 9,6 0,2 1,2 2,1 2,0 1,0 5,1 4,2 3,3 0,2 6,3 5,2 4,3 0,2 7,5 7,4 7,5 0,2 2,1 2,0 4,3 2,2 3,4 0,2 4,4 z M 315,105 q 0,-1 0,-1 1,0 1,0 0,1 -1,1 z m 33,2 q -2,-1 0,-1 3,0 4,1 1,1 -1,1 -2,0 -3,-1 z m 14,6 q 0,-1 2,0 2,1 0,1 -1,0 -1,-1 z m 5,2 q 0,-1 0,-1 1,0 1,0 0,1 -1,1 z m 5,2 q -3,-1 0,-1 2,0 2,1 0,1 -2,0 z m 10,5 q 0,-1 2,0 2,2 0,1 -2,0 -2,-1 z m 11,7 q 0,-1 0,-1 1,0 1,0 0,1 -1,1 z m 2,1 q 0,-1 1,-1 1,0 1,1 0,1 -1,1 -1,0 -1,-1 z m 8,6 q 0,-1 2,0 3,1 3,2 0,1 -2,0 -3,-1 -3,-2 z m 6,4 q 0,-1 1,-1 1,0 1,1 0,1 -1,1 -1,0 -1,-1 z m 7,6 q 0,-1 1,-1 1,0 1,1 0,1 -1,1 -1,0 -1,-1 z m 9,8 q 0,0 0,-1 1,0 1,1 z m 3,2 q 0,-1 1,0 1,0 2,1 0,1 -1,1 -2,-1 -2,-2 z"
       fill="#0f0f0f"
       stroke="#0f0f0f"
       id="path2"
       style="display:inline;opacity:1" />
    <path
       d="M 0,500 V 0 H 1000 V 1000 H 0 Z M 430,154 v 1 h 1 v 1 h 1 v 1 h 1 v 1 l 4,4 q 3,4 5,5 2,1 1,2 -1,1 2,2 3,1 3,2 -1,1 1,3 3,1 6,6 3,4 2,4 -1,1 1,3 1,3 4,6 2,3 3,4 1,0 1,2 0,1 3,7 3,5 3,6 0,2 2,2 2,1 2,2 0,0 1,1 1,1 5,10 5,9 6,10 2,0 2,1 0,1 -2,1 -2,1 0,2 2,1 7,13 5,12 5,22 0,9 1,8 1,-1 4,16 3,18 3,22 v 4 -2 q 0,-2 -1,-4 l -1,-2 v 6 l 2,2 q 1,2 2,3 2,2 1,2 -1,1 7,3 9,3 9,5 0,1 1,1 2,0 5,0 3,0 15,4 12,4 16,5 l 5,1 h 3 -13 l 2,1 2,1 h 8 q 8,0 21,2 14,2 18,3 5,1 6,1 2,0 0,1 -1,1 1,1 2,0 5,-1 3,0 3,1 0,1 -1,1 -1,1 6,1 8,2 19,5 11,3 11,5 0,2 2,2 h 6 -1 v 1 l 4,1 q 4,0 3,0 -2,0 3,0 5,0 5,2 0,2 6,2 6,1 6,2 -1,2 1,1 2,0 5,3 2,2 3,3 1,0 1,3 0,2 1,1 1,-1 1,1 1,2 4,3 2,1 6,8 4,7 5,8 0,1 -1,1 -1,0 0,1 2,1 4,1 1,1 3,4 3,3 5,7 2,5 4,8 1,3 0,3 -1,0 1,2 3,1 5,9 4,8 4,11 v 2 l -1,-2 -1,-1 v 4 l 1,1 v 2 l 1,-2 q 0,-1 2,3 2,4 2,13 0,8 1,8 1,-1 5,12 5,12 6,12 0,0 3,12 3,13 4,19 1,6 1,5 -2,-2 -2,0 0,2 1,2 v 2 l 1,1 v -2 l 1,1 1,2 v 3 l 2,11 q 0,10 0,16 v 10 l -1,-4 -1,-4 v 6 q 0,6 -1,11 -1,6 -3,10 -2,3 -4,4 -2,0 -1,1 1,1 -1,3 -1,1 -2,1 -2,0 -2,3 -2,3 -6,9 -4,6 -6,7 -2,0 -1,1 1,1 -4,8 -4,6 -5,8 0,1 -2,1 -2,0 -2,1 0,1 -1,4 -1,2 -6,12 -5,10 -6,9 -1,-1 -1,0 -1,1 0,2 1,0 -2,9 -3,9 -5,9 -1,0 -1,1 0,1 0,2 0,2 -1,1 -1,-1 -1,2 -1,3 0,3 1,0 -2,6 -2,7 -4,9 0,2 -1,5 0,2 -1,2 -2,-1 -6,4 -5,4 -8,6 -4,2 -6,2 -3,0 -2,-1 1,-1 -10,-1 -11,-2 -12,-2 -1,0 0,-1 0,-1 -2,-2 -3,-1 -6,-2 -2,-1 -4,-2 -2,-2 -2,-3 v -1 h 1 v -1 h -2 v 1 h -1 v 1 l -1,-1 -1,-1 v 3 l -2,7 q -2,7 -2,14 v 6 l -1,2 -1,2 v 3 -14 l -1,5 -1,4 v 2 q 0,2 0,7 v 5 -8 8 q 0,9 -2,11 0,2 -1,1 -1,-1 -1,2 0,2 0,5 0,2 -1,2 -1,0 -1,2 0,1 0,5 0,3 -13,33 -13,30 -16,37 -4,7 -6,7 -1,0 -4,4 -3,4 -4,5 -1,0 -1,-1 -1,-1 -6,1 -5,1 -5,2 0,1 -7,0 -8,0 -6,0 1,0 -3,0 -5,0 -6,-1 -1,-1 -3,-1 1,0 -2,-2 -4,0 -2,0 1,2 -2,0 -3,0 -3,-2 0,0 -1,-1 -2,-1 -2,0 0,1 -4,0 -4,-1 -4,-3 0,-2 -1,-2 -1,0 -3,-1 l -1,-1 -1,1 q 0,0 1,1 2,0 0,0 h -3 q -1,0 -1,-1 -1,-1 -2,-2 -1,-1 -9,-3 -8,-2 -8,-2 1,0 -7,-2 -8,0 -7,-1 2,-1 0,-1 -2,-2 -3,-1 -1,1 -1,-1 -2,-2 -4,-3 -3,-1 -5,-2 -3,0 -6,-1 -4,0 -4,-2 0,0 -2,-1 -3,-1 -6,-2 -4,-1 -4,-2 -1,-1 -2,-2 -1,-1 -5,-3 -4,-2 -2,-2 2,0 -4,-2 -5,-2 -4,-1 1,1 0,1 -2,0 -6,-3 -3,-2 -3,-3 1,-1 -2,-2 -2,0 -2,-1 1,-1 0,-3 -1,-1 -4,-2 -3,-2 -7,-2 -4,-1 -4,-3 0,-1 -5,-3 -5,-2 -5,-4 0,-2 -2,-2 -1,0 -4,-6 -4,-6 -7,-16 -4,-10 -5,-11 0,-1 -1,-1 -1,0 -1,-1 0,-1 -5,-5 -4,-4 -5,-7 -1,-3 -4,-3 -2,0 -5,-3 -3,-3 -4,-5 -1,-2 -6,-4 -4,-2 -5,-5 -2,-2 -4,-3 -2,-2 -5,-6 -3,-4 -2,-4 1,0 -1,-1 -3,-1 -6,-7 -4,-7 -3,-7 1,-1 0,-1 -1,0 -3,-4 -2,-3 -2,-22 0,-18 -3,-26 -3,-7 -2,-7 1,-1 -1,-2 -1,-1 -2,-3 -1,0 -6,-9 -4,-8 -5,-11 -1,-4 -1,-6 -1,-2 -2,-4 -2,-1 -4,-6 -2,-5 -2,-16 0,-12 3,-20 3,-8 4,-8 1,1 1,0 0,-2 0,-5 0,-3 4,-8 3,-5 9,-14 7,-10 8,-10 1,-1 3,-4 2,-3 8,-10 4,-7 7,-9 2,-2 3,-3 0,-1 1,-7 1,-6 1,-16 0,-9 -1,-18 -1,-9 -2,-8 -1,0 -3,-4 -2,-5 -4,-6 -2,-1 -16,-19 -13,-17 -14,-20 0,-3 -2,-3 -2,-1 -2,-4 0,-2 -2,-2 -3,-1 -6,-6 -2,-4 -4,-9 -2,-4 -4,-5 0,-2 -2,-3 -2,-1 -4,-7 -3,-5 -5,-6 -1,0 -2,-4 -1,-5 -3,-6 -3,0 -6,-5 -2,-4 -3,-8 -1,-4 -2,-5 -1,-2 -3,-4 -2,-2 -2,-6 -2,-4 -3,-4 -1,1 -2,-4 -1,-6 -1,-6 0,-1 0,-1 -2,0 -4,-9 l -2,-8 v -5 2 q 0,2 1,3 l 1,1 v -3 l -1,-2 q -1,-2 -1,-5 -2,-3 -2,-1 0,1 -1,0 -1,-1 -1,-7 0,-6 0,-4 0,2 0,-5 v -7 7 -4 q 0,-4 0,-5 0,-1 1,-15 l 1,-15 v -3 17 l 1,-5 1,-4 v -4 q 0,-3 2,-8 v -10 2 q 0,2 -1,4 l -1,3 v -3 q 0,-4 2,-9 v -5 l 1,-2 1,-1 v 2 q 0,2 0,5 v 2 -4 l 1,-1 v -2 l 1,-1 v -2 q 0,-2 -1,-1 -1,1 -1,-1 0,-1 3,-9 2,-9 3,-8 0,1 1,-1 0,-2 1,-7 0,-5 2,-11 2,-5 3,-4 1,1 2,-3 1,-3 1,-5 0,-2 3,-8 3,-7 5,-7 2,0 1,-1 -1,0 1,-4 2,-4 6,-10 5,-6 8,-6 2,0 3,-3 1,-3 6,-5 4,-3 4,-2 1,1 1,0 l 1,-2 v -2 h 3 l 2,-1 1,-1 1,1 q 2,0 8,-2 7,-1 6,-2 -1,-1 4,-2 5,-1 4,-1 -1,0 12,2 13,2 18,2 4,0 6,2 1,0 0,1 -1,1 0,1 2,1 2,0 0,-1 10,2 9,4 9,6 0,2 1,2 2,1 2,0 1,0 5,1 4,2 3,3 0,2 6,3 5,2 4,3 0,2 7,5 7,4 7,5 0,2 2,1 2,0 4,3 2,2 3,4 0,2 4,4 z"
       fill="#fefefe"
       stroke="#fefefe"
       id="path3"
       style="display:inline;opacity:0;fill:none;fill-opacity:1"
       inkscape:label="path3"
       inkscape:highlight-color="#aaaaaa" />
    <path
       d="m 434,160 v -1 l 3,3 q 3,3 3,4 0,0 2,2 2,0 1,1 -1,1 2,2 3,1 3,2 -1,1 1,3 3,1 6,6 3,4 2,4 -1,1 1,3 1,3 4,6 2,3 3,4 1,0 1,2 0,1 3,7 3,5 3,6 0,2 2,2 2,1 2,2 0,0 1,1 1,1 5,10 5,9 6,10 2,0 2,1 0,1 -2,1 -2,1 0,2 2,1 7,13 5,12 5,22 0,9 1,8 1,-1 4,16 3,18 3,22 v 4 -2 q 0,-2 -1,-4 l -1,-2 v 6 l 2,2 q 1,2 2,3 2,2 1,2 -1,1 7,3 9,3 9,5 0,1 1,1 2,0 5,0 3,0 15,4 12,4 16,5 l 5,1 h 3 -13 l 2,1 2,1 h 8 q 8,0 21,2 14,2 18,3 5,1 6,1 2,0 0,1 -1,1 1,1 2,0 5,-1 3,0 3,1 0,1 -1,1 -1,1 6,1 8,2 19,5 11,3 11,5 0,2 2,2 h 6 -1 v 2 h 1 v 1 h -1 v 1 h -1 l -2,1 h -4 q -2,-1 -12,-4 -11,-3 -27,-7 -16,-4 -45,-8 -28,-4 -42,-9 -13,-5 -38,-19 -26,-16 -34,-21 l -8,-6 v -1 h -1 v -1 h -1 v -1 h -1 v -1 h -1 v -1 l -1,-2 v -1 h 1 l 1,1 h 2 v 1 h 1 v 1 h 2 v 1 l 6,3 q 6,4 16,9 9,5 10,6 l 2,1 h 1 l 1,-1 2,-1 h 1 v -1 h 1 v -5 q 0,-4 -3,-26 -3,-22 -9,-35 -6,-13 -12,-24 -6,-11 -10,-19 -4,-7 -8,-16 -6,-8 -13,-18 l -7,-9 h -1 v -1 h -1 v -1 h -1 v -1 q -1,0 -1,0 v -3 h 2 l 1,-1 z m 1,3 q 0,-1 1,-1 2,1 2,2 0,1 -1,0 -1,0 -2,-1 z m 16,18 q 0,-1 2,0 1,1 2,2 0,1 -2,0 -1,-1 -2,-2 z m 8,14 q 0,-1 0,-1 1,0 1,0 0,1 -1,1 z m 1,2 q 0,-1 0,-1 z m 1,3 q 1,-2 1,0 1,1 0,1 -1,0 -1,-1 z m 4,6 q -2,-4 0,-2 1,1 3,4 1,2 0,2 -1,0 -3,-4 z m 4,6 q 0,0 0,-1 1,0 1,1 z m 1,2 q 0,0 0,-1 0,-1 0,1 z m 3,5 q 0,-1 0,-1 1,0 1,0 0,1 -1,1 z m 1,2 q 0,-1 1,-1 1,0 1,1 0,1 -1,1 -1,0 -1,-1 z m 8,11 q 0,-1 0,-1 0,1 0,1 0,0 0,2 0,1 0,0 0,-1 0,-2 z m 1,5 q 0,-1 0,-1 1,0 1,0 0,1 -1,1 z m 1,2 q 0,-1 0,-1 z m 4,6 q 0,-1 0,-1 z m 2,2 q -1,-1 0,-1 1,0 0,1 0,1 0,0 z m 2,6 q -1,-3 0,-3 1,0 1,3 1,3 -1,0 z m 2,7 q 0,0 0,-1 0,-1 0,1 z m 2,2 q 0,-1 1,5 1,6 1,5 0,-2 -1,-4 -1,-1 -1,-2 0,-2 0,-4 z m 4,28 q 0,-2 1,-2 0,0 0,1 1,0 1,3 0,3 -1,1 -1,-2 -1,-3 z m 2,8 q 0,-2 1,0 1,2 1,4 0,3 -1,1 -1,-2 -1,-5 z m 2,14 q 0,-4 1,-2 1,3 1,6 0,2 -1,0 -1,-1 -1,-4 z m 13,26 q 0,0 0,-1 1,0 1,1 z m 5,2 q -3,-2 0,-1 2,0 2,1 0,1 -2,0 z m 11,4 q -1,0 1,0 3,0 2,0 -2,0 -3,0 z m 24,7 1,1 -10,-3 q -10,-2 -10,-3 0,-1 9,2 9,2 10,3 z m 51,9 q 0,0 2,0 3,0 1,0 -2,0 -2,0 z m 24,6 q -1,0 1,0 2,0 1,0 -1,0 -2,0 z m 5,2 q 0,0 0,-1 1,0 1,1 z m 4,1 q 0,-1 3,1 4,0 3,0 -1,0 -3,0 -2,0 -2,-1 0,-1 -1,0 z m 12,4 q -4,-1 0,-1 4,0 4,1 0,1 -4,0 z"
       fill="#0c0c0c"
       stroke="#0c0c0c"
       id="path4"
       style="display:inline" />
    <path
       d="m 297,111 h 1 v 1 l -8,6 q -8,5 -14,10 -4,5 -12,18 -8,14 -14,38 -8,24 -8,26 v 2 l -1,3 -1,3 v -7 l -1,1 -1,1 v 1 h -1 v -1 l 1,-1 v -2 q 0,-2 -1,-1 -1,1 -1,-1 0,-1 3,-9 2,-9 3,-8 0,1 1,-1 0,-2 1,-7 0,-5 2,-11 2,-5 3,-4 1,1 2,-3 1,-3 1,-5 0,-2 3,-8 3,-7 5,-7 2,0 1,-1 -1,0 1,-4 2,-4 6,-10 5,-6 8,-6 2,0 3,-3 1,-3 6,-5 4,-3 4,-2 1,1 1,0 l 1,-2 h 1 q 1,0 2,0 2,0 3,-1 z m -10,5 q 0,0 0,-1 1,0 1,1 z m -2,0 q 1,0 1,1 0,1 -2,1 -1,1 0,0 0,-2 1,-2 z m -13,11 q 1,0 1,1 -1,1 -2,2 -1,0 -1,-1 1,-1 2,-2 z m -4,5 q 1,0 0,2 -1,3 -2,3 -1,0 0,-2 1,-3 2,-3 z m -4,7 q 0,-1 0,-1 z m -1,2 q 0,-1 0,-1 1,0 1,0 0,1 -1,1 z m -5,8 q 1,0 0,3 -2,4 -2,0 1,-3 2,-3 z m -5,10 q 0,-1 0,-1 1,0 1,0 0,1 -1,1 z m -7,19 q 1,-7 2,-7 1,0 -1,7 -1,6 -1,0 z m -2,8 q 0,0 0,-1 0,-1 0,1 z m -3,8 q 1,0 -1,6 -2,6 -1,0 1,-6 2,-6 z"
       fill="#151515"
       stroke="#151515"
       id="path5"
       style="display:inline" />
    <path
       d="m 235,212 1,-1 v 2 q 0,2 0,5 v 2 -4 l 1,-1 v -1 h 1 v -1 l 1,-1 1,-1 v 7 l -2,16 q -2,15 -2,33 0,18 5,35 5,16 9,24 4,9 11,21 7,13 12,20 5,8 8,11 3,3 11,13 7,11 14,19 7,10 16,20 8,12 8,12 h 1 l 1,1 1,1 h 3 v -1 h 1 v -1 h 1 l 6,-10 q 7,-10 24,-26 17,-16 28,-19 10,-3 21,-7 11,-2 25,-8 15,-6 22,-10 7,-2 10,-4 4,0 8,-1 l 4,-1 h 6 v 3 h -1 v 1 h -2 l -1,1 -1,1 -11,2 q -12,4 -19,8 -7,4 -19,9 -12,5 -28,9 -17,4 -24,9 -6,5 -11,11 -5,6 -11,10 -5,4 -10,13 -6,8 -7,14 -1,6 -1,15 0,10 2,16 2,5 1,18 -1,14 -3,22 -4,7 -11,18 -7,12 -20,32 -13,20 -14,27 -1,7 -1,14 0,7 10,25 10,19 15,28 5,8 7,32 2,24 6,31 5,7 16,15 11,10 16,13 5,3 10,9 6,6 14,22 8,16 14,20 5,4 11,9 6,5 10,7 4,2 19,10 14,8 32,16 17,8 32,14 14,5 25,10 11,6 23,7 11,1 15,-1 5,-2 13,-18 8,-17 9,-18 l 1,-2 v -5 h -5 q -5,1 -7,1 -3,0 -16,2 -14,0 -24,-1 -11,-1 -25,-5 -14,-4 -33,-11 -18,-8 -51,-20 l -33,-11 v -1 l -1,-1 -1,-1 v -9 h 1 v -1 h 1 v -1 h 7 q 6,0 22,6 16,6 33,12 16,6 32,12 16,6 38,12 22,6 36,5 15,-1 23,-6 9,-6 12,-11 3,-6 7,-20 4,-13 6,-24 2,-11 2,-17 v -7 h -3 v 1 h -1 v 1 l -1,1 -1,1 q 0,0 -2,2 -2,2 -12,6 -10,6 -26,6 -17,0 -26,-2 -8,-2 -21,-6 -13,-6 -27,-12 -14,-6 -40,-16 -26,-10 -36,-14 -10,-4 -24,-10 -14,-6 -18,-10 l -5,-2 v -1 h -1 v -9 h 1 l 1,-1 1,-1 h 3 l 2,1 q 1,1 26,11 25,10 48,19 24,9 40,16 15,7 30,14 15,7 26,9 10,2 22,2 13,0 22,-4 9,-4 14,-13 4,-9 7,-20 3,-11 3,-27 0,-15 0,-18 -2,-4 -4,-7 -3,-3 -8,-1 -4,2 -14,2 -10,0 -14,0 -5,-2 -18,-6 -14,-4 -28,-12 -13,-8 -25,-15 -13,-8 -30,-18 -18,-11 -30,-20 -13,-10 -21,-17 l -9,-6 v -1 h -1 v -1 l -1,-1 -1,-1 v -5 h 1 v -1 h 8 l 8,6 q 9,5 13,10 5,4 12,10 8,6 13,9 5,2 21,11 15,10 33,20 18,12 33,17 14,5 22,7 7,2 14,2 7,0 12,-4 6,-4 13,-11 7,-7 13,-19 6,-12 15,-45 9,-33 8,-41 -1,-8 -4,-13 -4,-5 -17,-13 -12,-8 -12,-8 h -1 v -1 h -1 v -1 h -6 v 4 q 0,3 2,6 2,2 2,3 v 7 h -5 v -1 h -1 v -1 h -1 v -1 h -1 v -1 q 0,0 -4,-4 -2,-3 -12,-12 -10,-10 -21,-19 -12,-9 -28,-21 -17,-13 -30,-20 -13,-8 -29,-12 l -17,-4 h -3 l -1,-1 -1,-1 -1,-2 v -1 h 1 l 2,1 16,1 q 15,1 34,11 20,9 24,12 4,4 10,4 5,0 8,-2 2,0 12,0 11,0 28,11 18,11 29,20 11,9 18,17 7,9 11,20 6,11 6,24 0,14 -6,40 -6,27 -14,46 -6,20 -9,41 -3,21 -2,35 1,14 3,20 2,5 8,14 6,10 13,13 7,3 15,3 9,0 14,-5 4,-5 12,-20 8,-15 14,-27 4,-11 12,-22 8,-12 22,-34 14,-22 16,-34 2,-11 2,-16 0,-5 0,-10 v -13 l 1,-1 v -1 h 2 v 1 l 1,1 v -2 l 1,1 1,2 v 3 l 2,11 q 0,10 0,16 v 10 l -1,-4 -1,-4 v 6 q 0,6 -1,11 -1,6 -3,10 -2,3 -4,4 -2,0 -1,1 1,1 -1,3 -1,1 -2,1 -2,0 -2,3 -2,3 -6,9 -4,6 -6,7 -2,0 -1,1 1,1 -4,8 -4,6 -5,8 0,1 -2,1 -2,0 -2,1 0,1 -1,4 -1,2 -6,12 -5,10 -6,9 -1,-1 -1,0 -1,1 0,2 1,0 -2,9 -3,9 -5,9 -1,0 -1,1 0,1 0,2 0,2 -1,1 -1,-1 -1,2 -1,3 0,3 1,0 -2,6 -2,7 -4,9 0,2 -1,5 0,2 -1,2 -2,-1 -6,4 -5,4 -8,6 -4,2 -6,2 -3,0 -2,-1 1,-1 -10,-1 -11,-2 -12,-2 -1,0 0,-1 0,-1 -2,-2 -3,-1 -6,-2 -2,-1 -4,-2 -2,-2 -2,-3 v -1 h 1 v -1 h -2 v 1 h -1 v 1 l -1,-1 -1,-1 v 3 l -2,7 q -2,7 -2,14 v 6 l -1,2 -1,2 v 3 -14 l -1,5 -1,4 v 2 q 0,2 0,7 v 5 -8 8 q 0,9 -2,11 0,2 -1,1 -1,-1 -1,2 0,2 0,5 0,2 -1,2 -1,0 -1,2 0,1 0,5 0,3 -13,33 -13,30 -16,37 -4,7 -6,7 -1,0 -4,4 -3,4 -4,5 -1,0 -1,-1 -1,-1 -6,1 -5,1 -5,2 0,1 -7,0 -8,0 -6,0 1,0 -3,0 -5,0 -6,-1 -1,-1 -3,-1 1,0 -2,-2 -4,0 -2,0 1,2 -2,0 -3,0 -3,-2 0,0 -1,-1 -2,-1 -2,0 0,1 -4,0 -4,-1 -4,-3 0,-2 -1,-2 -1,0 -3,-1 l -1,-1 -1,1 q 0,0 1,1 2,0 0,0 h -3 q -1,0 -1,-1 -1,-1 -2,-2 -1,-1 -9,-3 -8,-2 -8,-2 1,0 -7,-2 -8,0 -7,-1 2,-1 0,-1 -2,-2 -3,-1 -1,1 -1,-1 -2,-2 -4,-3 -3,-1 -5,-2 -3,0 -6,-1 -4,0 -4,-2 0,0 -2,-1 -3,-1 -6,-2 -4,-1 -4,-2 -1,-1 -2,-2 -1,-1 -5,-3 -4,-2 -2,-2 2,0 -4,-2 -5,-2 -4,-1 1,1 0,1 -2,0 -6,-3 -3,-2 -3,-3 1,-1 -2,-2 -2,0 -2,-1 1,-1 0,-3 -1,-1 -4,-2 -3,-2 -7,-2 -4,-1 -4,-3 0,-1 -5,-3 -5,-2 -5,-4 0,-2 -2,-2 -1,0 -4,-6 -4,-6 -7,-16 -4,-10 -5,-11 0,-1 -1,-1 -1,0 -1,-1 0,-1 -5,-5 -4,-4 -5,-7 -1,-3 -4,-3 -2,0 -5,-3 -3,-3 -4,-5 -1,-2 -6,-4 -4,-2 -5,-5 -2,-2 -4,-3 -2,-2 -5,-6 -3,-4 -2,-4 1,0 -1,-1 -3,-1 -6,-7 -4,-7 -3,-7 1,-1 0,-1 -1,0 -3,-4 -2,-3 -2,-22 0,-18 -3,-26 -3,-7 -2,-7 1,-1 -1,-2 -1,-1 -2,-3 -1,0 -6,-9 -4,-8 -5,-11 -1,-4 -1,-6 -1,-2 -2,-4 -2,-1 -4,-6 -2,-5 -2,-16 0,-12 3,-20 3,-8 4,-8 1,1 1,0 0,-2 0,-5 0,-3 4,-8 3,-5 9,-14 7,-10 8,-10 1,-1 3,-4 2,-3 8,-10 4,-7 7,-9 2,-2 3,-3 0,-1 1,-7 1,-6 1,-16 0,-9 -1,-18 -1,-9 -2,-8 -1,0 -3,-4 -2,-5 -4,-6 -2,-1 -16,-19 -13,-17 -14,-20 0,-3 -2,-3 -2,-1 -2,-4 0,-2 -2,-2 -3,-1 -6,-6 -2,-4 -4,-9 -2,-4 -4,-5 0,-2 -2,-3 -2,-1 -4,-7 -3,-5 -5,-6 -1,0 -2,-4 -1,-5 -3,-6 -3,0 -6,-5 -2,-4 -3,-8 -1,-4 -2,-5 -1,-2 -3,-4 -2,-2 -2,-6 -2,-4 -3,-4 -1,1 -2,-4 -1,-6 -1,-6 0,-1 0,-1 -2,0 -4,-9 l -2,-8 v -5 2 q 0,2 1,3 l 1,1 v -3 l -1,-2 q -1,-2 -1,-5 -2,-3 -2,-1 0,1 -1,0 -1,-1 -1,-7 0,-6 0,-4 0,2 0,-5 v -7 7 -4 q 0,-4 0,-5 0,-1 1,-15 l 1,-15 v -3 17 l 1,-5 1,-4 v -4 q 0,-3 2,-8 v -10 2 q 0,2 -1,4 l -1,3 v -3 q 0,-4 2,-9 v -5 z m 1,105 v -1 l -1,-4 q -1,-5 0,-4 1,2 1,4 0,2 0,4 z m 3,8 q 1,0 1,0 0,1 0,1 -1,0 -1,-1 z m 5,11 q 0,-1 1,-1 1,0 1,1 -1,2 -2,0 z m 2,3 q 0,0 1,0 0,1 -1,1 z m 1,2 q 1,0 1,0 0,1 0,1 -1,0 -1,-1 z m 6,13 q 1,0 1,0 z m 1,3 q 0,-1 1,-1 1,0 1,1 0,1 -1,1 -1,0 -1,-1 z m 3,4 q 0,-1 1,-1 1,0 1,1 0,1 -1,1 -1,0 -1,-1 z m 7,10 q 0,0 1,0 0,1 -1,1 z m 5,6 q 1,0 1,0 0,1 0,1 -1,0 -1,-1 z m 1,2 q 0,0 1,0 0,1 -1,1 z m 3,4 q 1,0 1,0 0,1 0,1 -1,0 -1,-1 z m 6,9 q 1,0 1,0 z m 1,3 q 0,-1 1,-1 1,1 2,2 0,1 -1,0 -2,0 -2,-1 z m 4,6 q 0,-2 1,-2 1,0 1,2 1,2 0,2 -1,0 -2,-2 z m 3,3 q 1,0 1,0 z m 1,2 q 0,0 1,0 1,0 -1,0 z m 9,13 q 0,-1 1,-1 1,0 1,1 0,1 -1,1 -1,0 -1,-1 z m 4,5 q 0,-1 1,0 2,0 2,1 0,1 -1,1 -1,-1 -2,-2 z m 3,4 q 0,-1 1,-1 1,0 1,1 0,1 -1,1 -1,0 -1,-1 z m 4,5 q 0,-1 1,-1 1,0 1,1 0,1 -1,1 -1,0 -1,-1 z m 4,6 q 0,-2 1,-2 1,0 1,2 1,2 0,2 -1,0 -2,-2 z m 256,-1 h 8 q 7,0 24,11 17,11 26,17 9,8 10,8 h 1 v 1 h 1 v 1 h 1 v 1 h 1 v 5 l -1,1 -1,1 h -3 l -1,-1 -2,-1 q 0,0 -4,-2 -4,-2 -14,-4 -9,0 -12,-2 -3,0 -20,-13 l -16,-12 -1,-1 -1,-1 v -3 h -1 v -1 h 1 v -2 q 1,-1 2,-2 1,-1 2,-1 z m -253,5 q 0,-1 1,-1 1,0 1,1 0,1 -1,1 -1,0 -1,-1 z m 4,5 q 0,-1 1,0 2,0 2,1 0,1 -1,1 -1,-1 -2,-2 z m 5,6 q 0,-1 1,0 1,0 2,1 0,1 -1,1 -2,-1 -2,-2 z m 6,6 q 0,0 1,0 1,0 -1,0 z m 2,3 q -1,-1 0,-1 1,0 0,1 0,1 0,0 z m 7,27 1,7 -1,3 q -1,2 -2,-12 -1,-14 0,-10 1,4 2,12 z m -2,14 q 1,-1 1,1 0,2 -1,3 -1,1 -1,-1 0,-2 1,-3 z m -6,17 q 1,0 1,1 0,1 -1,1 -1,0 -1,-1 0,-1 1,-1 z m -2,3 q 1,0 1,2 -1,2 -2,2 -1,0 0,-2 0,-2 1,-2 z m -3,5 q 1,0 1,1 0,1 -1,1 -1,0 -1,-1 0,-1 1,-1 z m -2,3 q 1,0 1,1 0,1 -1,1 -1,0 -1,-1 0,-1 1,-1 z m -3,4 q 1,0 1,1 0,1 -2,1 -1,1 0,0 0,-2 1,-2 z m -8,8 q 1,0 1,1 0,1 -1,1 -1,0 -1,-1 0,-1 1,-1 z m -2,3 q 1,0 1,0 0,1 0,1 -1,0 -1,-1 z m -1,2 q 0,0 1,0 0,1 -1,1 z m -1,2 q 1,0 1,1 0,1 -1,1 -1,0 -1,-1 0,-1 1,-1 z m -2,3 q 1,0 1,1 0,1 -1,1 -1,0 -1,-1 0,-1 1,-1 z m -2,3 q 1,0 1,1 0,1 -2,2 -1,0 0,-1 0,-1 1,-2 z m 465,3 q 0,-3 1,-2 1,2 1,5 0,3 -1,1 -1,-2 -1,-4 z m -469,2 q 1,0 1,1 0,1 -2,3 -2,1 -1,-2 1,-2 2,-2 z m -5,7 q 0,0 1,0 0,1 -1,1 z m -1,2 q 1,0 1,2 -1,2 -2,2 -1,0 0,-2 0,-2 1,-2 z m -8,35 -1,10 1,4 q 0,4 0,3 h -1 v -3 q 0,-2 -1,-6 -1,-4 2,-18 2,-13 3,-13 1,0 -1,6 -1,6 -2,17 z m 480,8 -1,3 2,-6 q 2,-6 2,-7 0,-1 0,4 -2,4 -3,6 z m -478,12 q 1,0 1,0 z m 1,2 q 0,0 1,0 1,0 -1,0 z m 464,1 q 1,0 1,1 -1,1 -2,2 -2,1 -1,-1 1,-1 2,-2 z m -460,10 q -1,-1 0,-1 1,0 0,1 0,1 0,0 z m 454,-1 q 1,0 1,1 0,1 -1,1 -1,0 -1,-1 0,-1 1,-1 z m -453,4 q 1,0 1,0 z m 2,6 q -1,-4 1,0 2,3 1,3 -1,0 -2,-3 z m 445,-1 q 1,0 0,3 -2,3 -4,6 -3,2 0,-4 3,-5 4,-5 z m -442,5 q 0,0 1,0 1,0 -1,0 z m 1,3 q 0,-1 1,-1 1,0 1,1 0,1 -1,1 -1,0 -1,-1 z m 3,3 q 0,0 1,0 1,0 -1,0 z m 6,10 q 0,-2 0,-1 0,1 0,3 0,1 0,1 0,-1 0,-1 z m 418,0 q 0,0 0,-1 0,-1 0,1 z m -4,8 q 3,-6 3,-5 1,1 -2,6 -3,5 -4,5 -1,0 3,-6 z m -411,20 1,22 -1,-14 q -1,-14 -1,-22 0,-7 1,14 z m 403,-4 q 0,0 0,-1 0,-1 0,1 z m -1,3 q 0,-1 0,-1 1,0 1,0 0,1 -1,1 z m -1,2 q 0,0 -1,3 -1,4 0,0 1,-4 1,-4 z m -10,26 q 2,-5 1,-1 -1,5 -3,6 -1,0 2,-5 z m -385,4 q 1,0 1,0 0,1 0,1 -1,0 -1,-1 z m 1,4 q 0,-2 1,-2 1,0 1,2 1,2 0,2 -1,0 -2,-2 z m 375,7 q 3,-6 3,-3 -2,3 -4,5 -3,3 1,-2 z m -371,-2 q 0,-1 1,-1 1,0 1,1 0,1 -1,1 -1,0 -1,-1 z m 324,3 q 0,0 1,0 0,1 -1,1 z m -15,13 -1,3 1,-5 q 1,-5 1,-2 0,2 -1,4 z m -303,-8 q 0,-1 1,-1 1,0 1,1 0,1 -1,1 -1,0 -1,-1 z m 358,0 q 0,0 1,0 1,0 -1,0 z m -2,1 q 0,0 1,0 0,1 -1,1 z m -2,1 q 0,0 1,0 1,0 -1,0 z m -342,10 q -2,-2 0,-1 3,0 3,1 0,1 -3,0 z m 22,18 q 0,-1 1,-1 1,0 1,1 0,1 -1,1 -1,0 -1,-1 z m 6,6 q 0,-1 1,-1 1,0 1,1 0,1 -1,1 -1,0 -1,-1 z m 258,4 q 0,-2 0,2 0,3 0,2 0,-2 0,-4 z m -255,-1 q 1,0 1,0 0,1 0,1 -1,0 -1,-1 z m 5,11 q 0,-1 2,4 2,4 1,4 0,0 0,-1 -1,0 -1,-1 0,-2 -1,-3 -1,-1 -1,-3 z m 4,9 q 0,0 1,0 0,1 -1,1 z m 1,2 q 1,0 1,0 0,1 0,1 -1,0 -1,-1 z m 1,2 q 0,0 1,0 0,1 -1,1 z m 238,0 q 0,0 0,3 -2,4 -2,2 0,-1 1,-2 1,-2 1,-2 z m -3,8 q 1,0 1,0 0,1 0,1 -1,0 -1,-1 z m -230,1 q 1,0 1,0 z m 225,16 h -1 l 3,-8 q 2,-7 1,0 -2,8 -3,8 z m -220,-9 q 0,-1 2,0 1,1 0,1 -1,0 -1,-1 z m 4,1 q 0,0 1,0 1,0 -1,0 z m 7,6 q 0,-1 1,-1 1,0 1,1 0,1 -1,1 -1,0 -1,-1 z m 207,3 q 0,0 -1,5 -1,4 -1,2 0,-1 0,-2 0,-1 1,-2 1,-2 1,-2 z m -189,8 q 1,0 1,0 0,1 0,1 -1,0 -1,-1 z m 183,10 q 2,-8 0,-1 -2,8 -3,8 -1,1 3,-7 z m -180,-7 q 0,0 1,0 1,0 -1,0 z m 16,7 q 0,0 1,0 0,1 -1,1 z m 8,7 q -1,0 0,-1 2,0 2,1 0,1 -2,0 z m 150,5 q 0,0 1,0 0,1 -1,1 z m -7,15 -1,-2 3,-6 q 3,-5 4,-5 1,0 -3,7 -3,8 -3,6 z m -10,10 q 1,0 1,0 z m -2,3 q 1,0 1,0 0,1 0,1 -1,0 -1,-1 z"
       fill="#070707"
       stroke="#070707"
       id="path6"
       style="display:inline" />
    <path
       d="m 425,160 h 1 v 1 h 1 v 1 h 1 l 1,1 h 1 v 1 q 0,0 1,0 v 1 h 1 v 1 h 1 v 1 h 1 l 7,9 q 7,10 13,18 4,9 8,16 4,8 10,19 6,11 12,24 6,13 9,35 3,22 3,26 v 5 h -1 v 1 h -1 l -2,1 -1,1 h -1 l -2,-1 q -1,-1 -10,-6 -10,-5 -16,-9 l -6,-3 v -1 h -2 v -1 h -1 v -1 h -2 l -1,-1 h -1 v 1 l 1,2 v 1 h 1 v 1 h 1 v 1 h 1 v 1 h 1 v 1 l 8,6 q 8,5 34,21 25,14 38,19 14,5 42,9 29,4 45,8 16,4 27,7 10,3 12,4 h 3 q 0,1 1,1 h 2 l 10,2 q 9,2 16,7 7,5 12,13 6,8 17,26 11,17 15,26 4,8 5,9 l 1,1 v 7 l 9,33 q 9,33 11,40 2,8 2,10 v 1 l 1,3 1,4 v 4 q 0,5 0,10 0,5 -2,16 -2,12 -16,34 -14,22 -22,34 -8,11 -12,22 -6,12 -14,27 -8,15 -12,20 -5,5 -14,5 -8,0 -15,-3 -7,-3 -13,-13 -6,-9 -8,-14 -2,-6 -3,-20 -1,-14 2,-35 3,-21 9,-41 8,-19 14,-46 6,-26 6,-40 0,-13 -6,-24 -4,-11 -11,-20 -7,-8 -18,-17 -11,-9 -29,-20 -17,-11 -28,-11 -10,0 -12,0 -3,2 -8,2 -6,0 -10,-4 -4,-3 -24,-12 -19,-10 -34,-11 l -16,-1 -2,-1 h -1 v 1 l 1,2 1,1 1,1 h 3 l 17,4 q 16,4 29,12 13,7 30,20 16,12 28,21 11,9 21,19 10,9 12,12 4,4 4,4 v 1 h 1 v 1 h 1 v 1 h 1 v 1 h 5 v -7 q 0,-1 -2,-3 -2,-3 -2,-6 v -4 h 6 v 1 h 1 v 1 h 1 q 0,0 12,8 13,8 17,13 3,5 4,13 1,8 -8,41 -9,33 -15,45 -6,12 -13,19 -7,7 -13,11 -5,4 -12,4 -7,0 -14,-2 -8,-2 -22,-7 -15,-5 -33,-17 -18,-10 -33,-20 -16,-9 -21,-11 -5,-3 -13,-9 -7,-6 -12,-10 -4,-5 -13,-10 l -8,-6 h -8 v 1 h -1 v 5 l 1,1 1,1 v 1 h 1 v 1 l 9,6 q 8,7 21,17 12,9 30,20 17,10 30,18 12,7 25,15 14,8 28,12 13,4 18,6 4,0 14,0 10,0 14,-2 5,-2 8,1 2,3 4,7 0,3 0,18 0,16 -3,27 -3,11 -7,20 -5,9 -14,13 -9,4 -22,4 -12,0 -22,-2 -11,-2 -26,-9 -15,-7 -30,-14 -16,-7 -40,-16 -23,-9 -48,-19 -25,-10 -26,-11 l -2,-1 h -3 l -1,1 -1,1 h -1 v 9 h 1 v 1 l 5,2 q 4,4 18,10 14,6 24,10 10,4 36,14 26,10 40,16 14,6 27,12 13,4 21,6 9,2 26,2 16,0 26,-6 10,-4 12,-6 2,-2 2,-2 l 1,-1 1,-1 v -1 h 1 v -1 h 3 v 7 q 0,6 -2,17 -2,11 -6,24 -4,14 -7,20 -3,5 -12,11 -8,5 -23,6 -14,1 -36,-5 -22,-6 -38,-12 -16,-6 -32,-12 -17,-6 -33,-12 -16,-6 -22,-6 h -7 v 1 h -1 v 1 h -1 v 9 l 1,1 1,1 v 1 l 33,11 q 33,12 51,20 19,7 33,11 14,4 25,5 10,1 24,1 13,-2 16,-2 2,0 7,-1 h 5 v 5 l -1,2 q -1,1 -9,18 -8,16 -13,18 -4,2 -15,1 -12,-1 -23,-7 -11,-5 -25,-10 -15,-6 -32,-14 -18,-8 -32,-16 -15,-8 -19,-10 -4,-2 -10,-7 -6,-5 -11,-9 -6,-4 -14,-20 -8,-16 -14,-22 -5,-6 -10,-9 -5,-3 -16,-13 -11,-8 -16,-15 -4,-7 -6,-31 -2,-24 -7,-32 -5,-9 -15,-28 -10,-18 -10,-25 0,-7 1,-14 1,-7 14,-27 13,-20 20,-32 7,-11 11,-18 2,-8 3,-22 1,-13 -1,-18 -2,-6 -2,-16 0,-9 1,-15 1,-6 7,-14 5,-9 10,-13 6,-4 11,-10 5,-6 11,-11 7,-5 24,-9 16,-4 28,-9 12,-5 19,-9 7,-4 19,-8 l 11,-2 1,-1 1,-1 h 2 v -1 h 1 v -3 h -6 l -4,1 q -4,1 -8,1 -3,2 -10,4 -7,4 -22,10 -14,6 -25,8 -11,4 -21,7 -11,3 -28,19 -17,16 -24,26 l -6,10 h -1 v 1 h -1 v 1 h -3 l -1,-1 -1,-1 h -1 q 0,0 -8,-12 -9,-10 -16,-20 -7,-8 -14,-19 -8,-10 -11,-13 -3,-3 -8,-11 -5,-7 -12,-20 -7,-12 -11,-21 -4,-8 -9,-24 -5,-17 -5,-35 0,-18 2,-33 l 2,-16 1,-3 1,-3 v -2 q 0,-2 8,-26 6,-24 14,-38 8,-13 12,-18 6,-5 14,-10 l 8,-6 10,-2 q 10,-2 20,-2 10,2 29,9 19,7 29,13 10,7 25,18 z"
       fill="#fdfdfd"
       stroke="#fdfdfd"
       id="path7"
       style="display:inline" />
    <path
       d="m 667,377 4,1 q 4,0 3,0 -2,0 3,0 5,0 5,2 0,2 6,2 6,1 6,2 -1,2 1,1 2,0 5,3 2,2 3,3 1,0 1,3 0,2 1,1 1,-1 1,1 1,2 4,3 2,1 6,8 4,7 5,8 0,1 -1,1 -1,0 0,1 2,1 4,1 1,1 3,4 3,3 5,7 2,5 4,8 1,3 0,3 -1,0 1,2 3,1 5,9 4,8 4,11 v 2 l -1,-2 -1,-1 v 4 l 1,1 v 2 h -1 v 1 h -1 v -1 h -1 v -2 l -1,-1 q -1,-1 -5,-9 -4,-9 -15,-26 -11,-18 -17,-26 -5,-8 -12,-13 -7,-5 -16,-7 l -10,-2 h -2 q -1,0 -1,-1 h 1 l 2,-1 h 1 v -1 h 1 v -1 h -1 z m 22,7 q -3,-2 0,-1 3,0 3,1 0,1 -3,0 z m 9,6 q 0,-1 1,0 1,0 2,1 0,1 -1,1 -2,-1 -2,-2 z m 12,12 q 0,0 0,-1 0,-1 0,1 z m 7,9 q -2,-4 -1,-4 1,0 2,4 0,4 -1,0 z m 6,11 q 0,0 0,-1 1,0 1,1 z m 3,4 q -2,-3 0,-1 2,2 3,3 0,1 -1,1 -1,0 -2,-3 z m 5,8 q 0,-1 1,-1 1,0 1,1 0,1 -1,1 -1,0 -1,-1 z m 2,3 q 0,-1 0,-1 1,0 1,0 0,1 -1,1 z m 1,2 q 0,-1 0,-1 z m 3,5 q 0,0 0,-1 1,0 1,1 z m 1,2 q 0,0 0,-1 0,-1 0,1 z m 2,2 q -1,-1 0,-1 1,0 0,1 0,2 0,0 z m 2,8 q 0,-2 1,-1 1,1 1,3 0,2 -1,0 -1,-1 -1,-2 z"
       fill="#101010"
       fill-opacity="0"
       stroke="#101010"
       id="path8"
       style="display:inline" />
    <path
       d="m 769,552 v 1 h -2 v 1 l -1,1 v 9 l -1,-4 -1,-3 v -1 q 0,-2 -2,-10 -2,-7 -11,-40 l -9,-33 v -5 h 1 v 1 h 1 v -1 h 1 l 1,-2 q 0,-1 2,3 2,4 2,13 0,8 1,8 1,-1 5,12 5,12 6,12 0,0 3,12 3,13 4,19 1,6 1,5 -2,-2 -2,0 0,2 1,2 z m -21,-78 q 0,-1 0,-1 0,1 0,1 0,0 0,2 0,3 0,2 0,-2 0,-4 z m 2,18 q 0,0 0,-1 0,-1 0,1 z m 4,10 q -2,-5 0,-3 0,2 0,5 0,2 0,-2 z m 1,6 q 0,0 0,-1 1,0 1,1 z m 1,2 q 0,0 0,-1 0,-1 0,1 z m 1,2 q 0,0 0,-1 1,0 1,1 z m 1,2 q 0,-1 1,-1 0,1 0,1 1,0 1,2 0,2 -1,1 -1,-1 -1,-3 z m 4,10 q -2,-5 0,-3 0,2 0,5 0,2 0,-2 z m 4,16 q 0,-2 0,2 1,4 1,3 -1,0 -1,-1 0,-2 0,-4 z"
       fill="#0f0f0f"
       stroke="#0f0f0f"
       id="path9"
       style="display:inline" />
  </g>
</svg>
